<svg width="512" height="448" viewBox="0 0 512 448" fill="none" xmlns="http://www.w3.org/2000/svg">
<path d="M113.16 388.565H147.816C182.037 388.565 193.397 390.21 227.618 390.21C250.819 390.21 263.877 390.029 287.018 391.678C300.605 392.647 311.725 391.215 325.309 390.21C333.553 389.6 341.733 387.492 349.364 384.338C359.649 380.086 364.969 375.83 371.946 367.21C379.802 357.505 382.373 353.827 385.947 341.894C390.545 326.541 389.024 317.077 390.402 301.119C392.138 281.015 392.369 269.688 393.373 249.535C393.682 243.335 394.025 237.569 394.375 232.099M113.16 388.565C107.553 387.797 104.099 388.581 98.8031 386.6C92.8305 384.365 89.8333 381.857 85.4361 377.266C80.8902 372.519 79.1142 369.042 76.5248 363.019C74.2424 357.71 73.4734 354.473 72.5642 348.772C71.6187 342.844 72.0816 334.301 72.3794 330.326C72.4724 329.085 73.5184 328.15 74.7623 328.165L146.618 329.04M113.16 388.565C116.06 387.797 117.893 387.914 120.586 386.6C122.946 385.448 124.027 384.358 126.032 382.67C135.34 374.834 140.727 357.912 141.38 355.65C142.032 353.387 145.3 339.316 146.618 329.04M146.618 329.04C148.727 312.606 148.582 302.127 150.054 285.002L150.055 284.996C150.063 284.892 152.018 260.975 152.018 241.443V240.844C152.018 222.59 152.019 188.801 150.546 152.379C149.171 118.391 147.728 69.9069 147.393 58.462C147.353 57.1003 148.454 55.9861 149.816 56.0001L383.935 58.4101C385.099 58.4221 386.08 59.2331 386.266 60.3822C387.911 70.5488 395.417 118.208 396.838 150.298C397.069 155.496 397.209 160.388 397.276 165.057M190.889 198.444L357.234 192.548M187.42 244.622L340.893 238.727M184.453 292.276L230.99 287.855H310.202M179.5 333.051L344.855 330.594M327.529 305.049L336.461 290.741M336.461 290.741C336.461 290.741 334.283 287.609 333.49 285.337C332.533 282.594 332.424 280.87 332.5 277.968C332.615 273.595 333.888 271.244 335.47 267.16C337.946 260.774 353.788 238.574 357.254 233.263C369.485 214.515 388.075 187.052 393.096 179.647C393.822 178.577 395.252 178.295 396.346 178.984L418.025 192.636C419.174 193.36 419.498 194.888 418.734 196.011C416.327 199.549 411.31 206.922 407.751 212.138C397.92 226.546 392.761 234.871 382.503 248.983C373.703 261.089 368.64 267.16 361.709 276.494C359.521 279.442 356.405 283.03 354.283 285.337C352.346 287.444 350.818 289.588 348.837 290.741C347.413 291.571 346.516 292.009 344.877 292.215C342.733 292.485 342.056 292.087 339.926 291.724C338.767 291.526 336.461 290.741 336.461 290.741ZM473.083 77.5943L484.965 59.9086C486.355 58.0516 489.288 57.9051 490.433 57.9232C490.747 57.9281 491.049 58.0179 491.327 58.1626L499.536 62.4293C500.56 62.9618 501.061 64.1481 500.693 65.2422C500.17 66.7921 499.412 68.8648 498.827 69.734C498.161 70.7236 492.338 77.499 488.6 81.825C487.307 83.3219 488.272 85.7304 490.214 86.1096C492.816 86.6179 495.814 87.4804 497.342 88.8936C501.966 93.1707 502.973 97.41 503.778 103.632C504.931 112.545 501.448 117.729 497.342 125.739C489.899 140.257 478.762 143.242 466.647 154.233C457.25 162.758 445.667 164.434 441.397 176.336C439.883 180.556 438.412 183.131 440.408 187.148C441.497 189.338 442.546 190.748 444.864 191.569C447.649 192.556 450.564 192.479 452.29 190.095C452.897 189.256 453.137 188.662 453.28 187.639M392.517 176.666L421.674 194.804C422.745 195.47 424.149 195.193 424.888 194.171L466.14 137.051C466.149 137.04 466.148 137.04 466.157 137.029C466.424 136.671 480.108 118.395 485.956 109.523C487.336 107.43 490.231 103.09 490.906 100.68C491.528 98.4621 491.65 96.5826 491.402 94.2936C491.125 91.7487 489.769 90.0957 488.431 87.9071C487.006 85.5755 487.142 85.6415 484.966 83.9769C482.883 82.3839 482.79 82.3297 480.51 81.0293C478.485 79.874 476.377 78.4704 474.074 78.0798C472.549 77.8212 470.67 77.0991 469.123 77.0991C466.61 77.0991 465.634 77.5326 463.182 78.0798C460.903 78.5885 458.769 79.377 456.746 80.5364C452.478 82.9828 451.051 84.8094 448.33 88.888C431.554 114.036 408.859 147.867 397.5 164.789C394.963 168.569 392.991 171.505 391.777 173.312C391.02 174.44 391.364 175.949 392.517 176.666Z" stroke="#5F5073" stroke-width="2.4"/>
</svg>
