<svg width="512" height="448" viewBox="0 0 512 448" fill="none" xmlns="http://www.w3.org/2000/svg">
<path d="M207.339 179.589C207.339 179.589 217.147 185.535 227.188 187.624C240.867 190.47 254.059 190.686 267.97 189.45C284.146 188.012 293.842 186.884 308.391 179.589C317.744 174.899 330.406 164.249 330.406 164.249M204.09 202.964C204.09 202.964 192.542 194.751 187.128 187.624C180.011 178.254 177.948 171.357 175.218 159.866C172.446 148.196 172.295 141.135 173.414 129.187C174.44 118.235 176.082 112.091 179.91 101.794C184.085 90.5647 186.681 83.92 194.346 74.767C200.751 67.1184 205.324 63.463 213.835 58.3315C222.311 53.2209 227.843 51.7046 237.293 48.8355M237.293 48.8355C245.581 46.3194 250.344 45.0169 258.948 44.0874C262.527 43.7008 265.482 43.3877 268.33 43.2592M237.293 48.8355C237.293 48.8355 243.724 42.5216 248.481 39.3398C256.494 33.9797 262.07 32.8114 271.218 29.8437C280.855 26.7171 296.481 24 296.481 24M326.075 204.424C330.754 199.728 333.221 196.908 337.263 191.641C341.436 186.205 343.731 183.064 347.008 177.032C351.395 168.955 353.531 164.078 355.669 155.118C357.83 146.068 358.333 140.675 357.835 131.378C357.337 122.077 356.092 116.827 353.143 108.003C350.073 98.8184 347.788 93.6825 342.316 85.7239C337.643 78.9275 334.285 75.5997 328.241 70.0189C321.16 63.4812 316.712 60.2245 308.391 55.4097C298.349 49.5985 292.374 46.0076 280.963 44.0874C276.033 43.2579 272.284 43.0807 268.33 43.2592M268.33 43.2592C268.33 43.2592 278.824 38.006 286.015 36.0527C291.811 34.4782 295.239 34.4066 301.172 33.496C306.237 32.7188 314.165 31.6699 314.165 31.6699" stroke="#5F5073" stroke-width="2"/>
<path d="M230.438 104.351C230.438 104.351 236.411 98.4412 240.904 95.5854C245.122 92.9043 252.453 90.1069 252.453 90.1069M287.821 90.1069C287.821 90.1069 296.126 91.609 300.813 94.1245C305.073 96.4103 310.558 101.794 310.558 101.794" stroke="#5F5073" stroke-width="2"/>
<path d="M40.6105 410.05C40.6105 410.05 36.6512 413.389 34.1143 415.529M34.1143 415.529C32.3013 417.355 31.5795 418.085 30.1423 420.277C28.95 422.095 28.4528 424.318 28.7007 426.486C28.9487 428.653 34.1143 433.79 35.5571 434.521C37.7257 435.619 40.6097 437.443 42.0533 437.443C43.4969 437.443 72.7316 437.499 74.8962 437.443C77.0608 437.387 82.4079 432.837 84.2797 427.947C85.2589 425.388 85.8451 423.707 85.3624 421.007C84.833 418.046 83.7545 416.26 81.3925 414.433M34.1143 415.529C37.1713 417.108 39.0497 417.769 42.415 418.451C48.364 419.656 57.9338 417.72 57.9338 417.72M81.3925 414.433C78.8555 411.58 77.4332 409.981 74.8962 407.128M81.3925 414.433C79.983 415.289 79.2752 415.926 77.7834 416.624C74.5222 418.151 72.3437 418.173 68.7609 418.451C64.5356 418.778 57.9338 417.72 57.9338 417.72M57.9338 417.72V412.607" stroke="#5F5073" stroke-width="2"/>
<path d="M120.723 415.529C121.446 418.817 123.971 422.469 126.498 422.469C129.024 422.469 416.047 425.138 419.911 423.93C423.775 422.722 425.385 421.389 426.408 416.625C427.431 411.862 444.613 233.001 442.648 224.513C440.683 216.025 437.827 213.453 430.378 211.73C422.928 210.006 126.91 212.869 117.475 212.826C108.04 212.782 104.881 215.623 103.761 227.07C102.641 238.517 120 412.242 120.723 415.529Z" stroke="#5F5073" stroke-width="2"/>
<path d="M117.114 232.548C117.114 232.548 117.05 228.675 118.557 227.069C119.909 225.629 123.249 225.243 123.249 225.243M135.88 224.513L402.948 222.321M420.632 222.687C420.632 222.687 426.758 223.223 428.933 225.974C430.748 228.269 430.737 233.278 430.737 233.278M117.114 267.975L123.249 353.074M428.933 286.967L420.632 396.902" stroke="#5F5073" stroke-width="2"/>
<path d="M423.173 423.564C423.173 423.564 424.252 429.043 423.173 433.426C422.094 437.809 421.369 437.809 421.369 437.809C421.369 437.809 123.638 437.809 122.181 437.809C120.724 437.809 119.279 435.982 119.279 430.139C119.279 424.295 122.181 421.008 122.181 421.008" stroke="#5F5073" stroke-width="2"/>
<path d="M24 438.904L504 440" stroke="#5F5073" stroke-width="2"/>
<path d="M435.068 384.119L459.249 413.703M459.249 413.703C446.695 420.261 443.252 424.56 439.038 435.617M459.249 413.703C470.73 411.982 476.484 410.801 484.151 416.99C489.92 421.646 493.396 428.626 493.174 433.791" stroke="#5F5073" stroke-width="2"/>
<path d="M301.896 280.393C301.896 280.393 302.137 273.576 302.618 271.993C303.05 270.573 251.025 271.7 240.297 271.948C239.212 271.973 238.377 272.859 238.377 273.945V281.047C238.377 282.113 239.213 282.991 240.278 283.044L297.204 285.872" stroke="#5F5073" stroke-width="2"/>
<path d="M108.089 354.9C100.62 363.315 96.4315 368.033 88.9616 376.449C81.4917 384.864 70.5556 394.345 70.5556 394.345M70.5556 394.345C65.9045 394.202 62.9766 394.345 58.2849 394.71C53.5932 395.075 48.876 398.511 44.5706 403.111C43.4602 404.297 42.2466 406.009 41.3319 407.389C40.5867 408.513 41.2137 409.992 42.5357 410.259C46.1146 410.982 52.569 412.103 57.2022 411.876C63.6151 411.562 72.02 408.13 74.927 406.864C75.5762 406.581 76.0137 405.965 76.0403 405.258C76.0653 404.59 76.0667 403.754 75.9691 403.111C75.3874 399.275 70.5556 394.345 70.5556 394.345Z" stroke="#5F5073" stroke-width="2"/>
<path d="M252.452 129.917C252.452 136.573 247.976 142.335 243.791 142.335C239.605 142.335 236.934 136.939 236.934 130.282C236.934 123.626 240.688 117.499 244.873 117.499C249.059 117.499 252.452 123.26 252.452 129.917Z" fill="#221433"/>
<path d="M295.762 127.726C295.762 134.383 290.925 141.605 286.739 141.605C282.553 141.605 279.16 137.304 279.16 130.648C279.16 123.991 283.997 115.308 288.183 115.308C292.368 115.308 295.762 121.07 295.762 127.726Z" fill="#221433"/>
</svg>
