<svg width="70" height="32" viewBox="0 0 70 32" fill="none" xmlns="http://www.w3.org/2000/svg">
<path d="M55.9894 30.0612C54.0526 30.0612 52.4527 28.5947 52.4527 26.5244C52.4527 24.6698 54.0526 22.9877 55.9894 22.9877C57.9262 22.9877 59.5262 24.6698 59.5262 26.5244C59.5262 28.5947 57.9262 30.0612 55.9894 30.0612Z" fill="#7129CC"/>
<path d="M3.62666 0.0423096C1.50461 0.0423096 -0.659883 1.86725 0.188938 4.58344L8.59226 29.6233C9.10156 31.1936 10.5021 32 11.9027 32C13.3457 32 14.7887 31.1936 15.3404 29.6233L20.3909 14.3023L25.1601 29.6233C25.1785 29.6801 25.1986 29.7358 25.2201 29.7905C25.7961 31.2496 27.4838 31.9987 28.8332 32C30.2744 31.9987 31.357 31.1923 31.9083 29.6233L37.2537 14.286L42.4532 29.6233C42.9625 31.1936 44.363 32 45.7636 32C47.2066 32 48.6496 31.1936 49.2013 29.6233L55.8579 9.68775C58.3711 17.2855 62.6389 29.6225 62.6389 29.6225C63.1906 31.2776 64.5063 31.9991 65.7795 31.9991C67.9015 31.9991 70.066 30.1742 69.2172 27.458C69.2172 27.458 61.8205 4.19371 60.8139 2.41811C59.8073 0.642514 58.0292 0 56.2608 3.6216e-07C54.4924 7.2432e-07 52.7736 0.322178 51.4226 2.37125C50.0715 4.42033 45.8485 17.7824 45.8485 17.7824L40.6852 2.37125C40.1759 0.758515 38.6405 0.0423096 37.24 0.0423096C36.7104 0.0423096 36.1591 0.1592 35.6561 0.406821C34.9129 0.780272 34.2983 1.44476 33.965 2.41898L28.5554 17.7824L23.3352 2.41898C22.7834 0.763796 21.298 0.0423096 20.0248 0.0423096C18.6242 0.0423096 17.5898 0.806239 17.038 2.41898L11.9451 17.7824L6.7673 2.41898C6.21557 0.763796 4.89989 0.0423096 3.62666 0.0423096Z" fill="#7129CC"/>
</svg>
