<svg width="72" height="28" viewBox="0 0 72 28" fill="none" xmlns="http://www.w3.org/2000/svg" id="svg1924237135_7878">
    <path fill-rule="evenodd" clip-rule="evenodd" d="M26.5482 11.352C26.4368 11.3522 26.3265 11.3302 26.2236 11.2875C26.1207 11.2448 26.0271 11.1821 25.9483 11.1031C25.8694 11.024 25.8069 10.9301 25.7641 10.8268C25.7214 10.7234 25.6993 10.6126 25.6992 10.5007V8.51016C25.6993 8.39822 25.7214 8.28742 25.7641 8.18406C25.8069 8.08069 25.8694 7.9868 25.9483 7.90774C26.0271 7.82868 26.1207 7.766 26.2236 7.72329C26.3265 7.68057 26.4368 7.65867 26.5482 7.6588H27.3617C27.473 7.65893 27.5833 7.637 27.6863 7.59429C27.7892 7.55157 27.8827 7.48889 27.9616 7.40983C28.0404 7.33078 28.103 7.23688 28.1457 7.13352C28.1885 7.03016 28.2105 6.91935 28.2107 6.80742V3.96257C28.2107 3.79592 28.2595 3.63295 28.3509 3.49393C28.4424 3.35492 28.5725 3.24599 28.725 3.18065L31.6441 1.92344C31.7732 1.8676 31.9141 1.84483 32.0541 1.85719C32.1941 1.86954 32.3288 1.91663 32.4462 1.99423C32.5636 2.07183 32.66 2.17751 32.7268 2.3018C32.7936 2.42608 32.8286 2.56509 32.8288 2.70634V6.80742C32.8289 6.91935 32.851 7.03016 32.8937 7.13352C32.9365 7.23688 32.999 7.33078 33.0779 7.40983C33.1567 7.48889 33.2503 7.55157 33.3532 7.59429C33.4561 7.637 33.5664 7.65893 33.6778 7.6588H35.4113C35.5227 7.65867 35.633 7.68057 35.7359 7.72329C35.8388 7.766 35.9324 7.82868 36.0112 7.90774C36.09 7.9868 36.1526 8.08069 36.1954 8.18406C36.2381 8.28742 36.2602 8.39822 36.2603 8.51016V10.5007C36.2602 10.6126 36.2381 10.7234 36.1954 10.8268C36.1526 10.9301 36.09 11.024 36.0112 11.1031C35.9324 11.1821 35.8388 11.2448 35.7359 11.2875C35.633 11.3302 35.5227 11.3522 35.4113 11.352H33.6748C33.5634 11.3519 33.4532 11.3738 33.3502 11.4165C33.2473 11.4592 33.1537 11.5219 33.0749 11.601C32.9961 11.68 32.9335 11.7739 32.8908 11.8773C32.848 11.9807 32.826 12.0915 32.8258 12.2034V16.371C32.8258 17.8177 33.5475 18.5708 34.9325 18.5708C35.0411 18.5708 35.1408 18.5708 35.2356 18.5639C35.7706 18.5401 36.2603 18.9271 36.2603 19.4649V21.3968C36.2617 21.5949 36.1929 21.787 36.0663 21.9388C35.9397 22.0906 35.7635 22.1922 35.5693 22.2254C34.9307 22.3349 34.2841 22.3907 33.6363 22.3921C29.7981 22.3921 28.2067 20.6556 28.2067 17.4704V12.2014C28.2066 12.0895 28.1845 11.9787 28.1418 11.8753C28.099 11.772 28.0365 11.6781 27.9576 11.599C27.8788 11.5199 27.7852 11.4573 27.6823 11.4145C27.5794 11.3718 27.4691 11.3499 27.3577 11.3501L26.5482 11.352ZM37.7431 21.3433C37.7431 21.5693 37.8324 21.7861 37.9914 21.946C38.1505 22.1058 38.3662 22.1956 38.5911 22.1956H41.532C41.6433 22.1956 41.7535 22.1736 41.8563 22.1307C41.9591 22.0879 42.0526 22.0251 42.1312 21.9459C42.2099 21.8668 42.2723 21.7728 42.3148 21.6694C42.3573 21.566 42.3791 21.4551 42.379 21.3433V8.56076C42.379 8.33487 42.2898 8.11822 42.1309 7.9584C41.9721 7.79858 41.7567 7.70868 41.532 7.70841H38.5871C38.3623 7.70868 38.1468 7.79856 37.9878 7.95835C37.8288 8.11814 37.7394 8.33478 37.7391 8.56076L37.7431 21.3433ZM59.9482 28.0004C59.5523 27.9955 59.1569 27.97 58.7636 27.924C58.5647 27.8994 58.3819 27.8018 58.2501 27.65C58.1184 27.4982 58.0471 27.3028 58.0498 27.1014V24.9512C58.0498 24.4262 58.5177 24.0403 59.037 24.078C59.1772 24.0879 59.3026 24.0919 59.4319 24.0919C61.0983 24.0919 61.9897 24.0383 62.3935 22.7374C62.4324 22.59 62.4572 22.4391 62.4675 22.2869C62.4865 21.9956 62.4393 21.7038 62.3293 21.4335L57.5473 8.91402C57.498 8.78518 57.4805 8.64618 57.4966 8.50907C57.5126 8.37195 57.5616 8.24082 57.6394 8.12701C57.7171 8.01319 57.8213 7.92014 57.9429 7.85585C58.0644 7.79156 58.1997 7.75799 58.3371 7.75803H61.4961C61.6797 7.75821 61.8583 7.81841 62.0049 7.92957C62.1514 8.04073 62.258 8.19681 62.3086 8.37423L64.6335 16.0524C64.8013 16.6478 64.9148 17.1003 64.9474 17.6857C64.9479 17.6979 64.9532 17.7094 64.962 17.7178C64.9709 17.7261 64.9826 17.7307 64.9948 17.7304C65.0062 17.7302 65.0172 17.7259 65.0257 17.7183C65.0343 17.7106 65.0397 17.7001 65.0412 17.6887C65.1099 17.1349 65.2235 16.5877 65.3808 16.0524L67.5418 8.39009C67.5894 8.20899 67.6954 8.0488 67.843 7.93449C67.9907 7.82017 68.1718 7.75814 68.3582 7.75803H71.1539C71.2884 7.75825 71.421 7.79065 71.5405 7.85258C71.6601 7.91451 71.7633 8.00417 71.8415 8.11414C71.9198 8.22411 71.9708 8.35121 71.9905 8.48496C72.0101 8.61871 71.9978 8.75524 71.9546 8.88325L67.216 22.8535C65.9257 26.5835 63.744 28.0004 59.9482 28.0004ZM56.2038 2.01274C56.2039 1.9008 56.1821 1.78993 56.1396 1.68647C56.0971 1.58301 56.0347 1.48898 55.9561 1.40974C55.8774 1.3305 55.784 1.26759 55.6812 1.22464C55.5783 1.18168 55.4681 1.15953 55.3567 1.1594H52.4119C52.1869 1.15966 51.9712 1.24966 51.8122 1.40967C51.6532 1.56968 51.5639 1.78659 51.5639 2.01274V21.3403C51.5639 21.5664 51.6532 21.7833 51.8122 21.9434C51.9712 22.1034 52.1869 22.1934 52.4119 22.1936H55.3528C55.4641 22.1935 55.5744 22.1713 55.6772 22.1284C55.78 22.0854 55.8735 22.0225 55.9521 21.9433C56.0308 21.864 56.0931 21.77 56.1356 21.6666C56.1781 21.5631 56.1999 21.4522 56.1998 21.3403L56.2038 2.01274ZM48.3476 1.1594C48.459 1.15953 48.5692 1.18168 48.672 1.22464C48.7749 1.26759 48.8683 1.3305 48.9469 1.40974C49.0256 1.48898 49.0879 1.58301 49.1304 1.68647C49.1729 1.78993 49.1948 1.9008 49.1946 2.01274V21.3403C49.1948 21.4522 49.1729 21.5631 49.1304 21.6666C49.0879 21.77 49.0256 21.864 48.9469 21.9433C48.8683 22.0225 48.7749 22.0854 48.672 22.1284C48.5692 22.1713 48.459 22.1935 48.3476 22.1936H45.4028C45.1778 22.1934 44.9621 22.1034 44.8031 21.9434C44.6441 21.7833 44.5548 21.5664 44.5548 21.3403V2.01075C44.5548 1.7846 44.6441 1.56769 44.8031 1.40768C44.9621 1.24768 45.1778 1.15767 45.4028 1.15741L48.3476 1.1594Z" fill="#4F64EB"></path>
    <path d="M39.4058 0.602718L37.3242 2.69503C36.9931 3.0279 36.9931 3.56758 37.3242 3.90045L39.4066 5.99346C39.7377 6.32633 40.2746 6.32633 40.6058 5.99346L42.6874 3.90115C43.0186 3.56828 43.0186 3.0286 42.6874 2.69573L40.6051 0.602718C40.2739 0.269849 39.737 0.269849 39.4058 0.602718Z" fill="#4F64EB"></path>
    <path fill-rule="evenodd" clip-rule="evenodd" d="M16.3054 6.80466C15.3646 6.44546 14.7762 6.04953 14.2323 5.37776V5.3867C13.8068 4.8082 13.5353 4.09674 13.4208 2.82563C13.3478 2.02387 12.7722 1.624 11.9834 1.60515C8.82932 1.53073 6.36627 2.94967 5.23889 5.93642C4.89337 6.85428 4.51033 7.42483 3.87753 7.96761C3.29706 8.44589 2.56061 8.74854 1.21703 8.87158C0.41937 8.94402 0.021523 9.52349 0.00276615 10.3163C-0.071274 13.4866 1.34041 15.9624 4.31189 17.0946C5.2527 17.4528 5.84008 17.8497 6.38502 18.5205C6.38502 18.5205 6.38502 18.5145 6.38502 18.5125C6.8105 19.09 7.08198 19.8074 7.19649 21.0736C7.26955 21.8744 7.84509 22.2752 8.63387 22.2941C11.788 22.3675 14.2511 20.9495 15.3784 17.9628C15.724 17.0449 16.107 16.4744 16.7398 15.9306C17.3203 15.4523 18.0567 15.1507 19.4003 15.0276C20.198 14.9542 20.5958 14.3757 20.6146 13.5829C20.6886 10.4126 19.2769 7.93685 16.3054 6.80466ZM12.9489 12.4527L12.3566 12.7772C11.8414 13.0608 11.4177 13.4868 11.1354 14.0046L10.8126 14.6C10.7635 14.6902 10.6911 14.7655 10.603 14.818C10.515 14.8704 10.4145 14.8981 10.3121 14.8981C10.2097 14.8981 10.1093 14.8704 10.0212 14.818C9.93314 14.7655 9.86074 14.6902 9.81159 14.6L9.48877 14.0046C9.20548 13.4862 8.78034 13.0602 8.26366 12.7772L7.67134 12.4527C7.58156 12.4033 7.50664 12.3305 7.45445 12.242C7.40227 12.1535 7.37475 12.0525 7.37475 11.9496C7.37475 11.8467 7.40227 11.7457 7.45445 11.6572C7.50664 11.5687 7.58156 11.4959 7.67134 11.4465L8.26366 11.1211C8.77904 10.8381 9.20287 10.4124 9.48485 9.8946L9.80764 9.29923C9.85679 9.20899 9.92921 9.13371 10.0173 9.08125C10.1053 9.0288 10.2058 9.00112 10.3082 9.00112C10.4105 9.00112 10.511 9.0288 10.5991 9.08125C10.6871 9.13371 10.7595 9.20899 10.8087 9.29923L11.1315 9.8946C11.4135 10.4124 11.8373 10.8381 12.3526 11.1211L12.945 11.4465C13.0349 11.4958 13.1099 11.5684 13.1623 11.6568C13.2146 11.7452 13.2424 11.8461 13.2426 11.949C13.2428 12.0519 13.2154 12.1529 13.1634 12.2416C13.1114 12.3302 13.0366 12.4031 12.9469 12.4527H12.9489Z" fill="#4F64EB"></path>
</svg>