<svg width="378" height="338" viewBox="0 0 378 338" fill="none" xmlns="http://www.w3.org/2000/svg">
<path d="M153.135 235.779V259.214M191.646 229.795H276.67C280.672 229.795 285.173 225.806 285.173 220.321V170.458M36.1016 104.141V123.587M22.5977 102.645V219.822C22.5977 226.305 24.0981 230.294 30.5999 230.294H115.624M133.137 249.246H16.6036C10.0928 249.246 1.10104 240.765 1.09926 232.792C1.09749 224.818 0.87681 120.288 1.09926 114.118C1.32172 107.948 3.82453 98.9501 16.6036 95.1701C29.3827 91.3901 237.166 95.1701 237.166 95.1701M133.137 249.246V226.333C133.137 224.117 134.927 222.32 137.137 222.32H170.148C172.357 222.32 174.148 224.117 174.148 226.333V249.246M133.137 249.246V268.669C133.137 270.885 134.927 272.682 137.137 272.682H170.148C172.357 272.682 174.148 270.885 174.148 268.669V249.246M174.148 249.246H290.681C295.69 249.246 306.693 240.775 306.686 232.792C306.678 224.809 306.686 183.427 306.686 183.427M14.5957 249.74C14.5957 249.74 14.5959 321.542 14.5957 323.537C14.5955 325.532 16.2141 329.231 18.5968 332.014C20.7788 334.562 23.5982 337 25.5988 337H280.171C280.171 337 285.655 334.697 288.173 332.014C290.74 329.279 292.674 323.537 292.674 323.537V249.74M106.121 92.6719C106.121 92.6719 110.698 77.5879 117.124 70.2336C126.707 59.268 136.063 54.4768 150.634 53.7788C166.799 53.0045 177.554 58.4842 188.645 70.2336C195.536 77.5335 201.148 92.6719 201.148 92.6719M284.119 68.5474L302.947 92.0105C303.8 93.0741 305.44 92.9904 306.182 91.8453L328.844 56.8472C329.535 55.7794 331.031 55.6194 331.931 56.517L341.071 65.6295C341.726 66.2829 341.85 67.3017 341.371 68.094L308.629 122.188C307.917 123.364 306.265 123.489 305.385 122.434L271.301 81.5652C270.654 80.789 270.684 79.6505 271.372 78.91L281.098 68.4378C281.928 67.5438 283.355 67.5956 284.119 68.5474ZM306.721 1.75778C290.765 21.3419 273.944 27.464 237.827 32.1255C236.87 32.249 236.118 33.0421 236.069 34.009C233.647 81.6962 243.782 126.763 254.164 142.535C264.668 158.491 276.043 162.74 292.177 170.957C297.759 174.31 300.937 176.608 304.638 181.011C305.455 181.981 306.948 182.017 307.796 181.074C312.115 176.269 315.604 173.671 322.925 170.957C341.185 162.464 351.189 153.006 360.193 142.535C369.093 132.185 378.613 78.8338 376.769 33.9177C376.731 32.9885 376.043 32.2151 375.132 32.0412C342.975 25.8991 327.216 19.6654 309.791 1.62385C308.937 0.73996 307.497 0.804873 306.721 1.75778Z" stroke="#5F5073" stroke-width="2"/>
</svg>
