<svg width="306" height="282" viewBox="0 0 306 282" fill="none" xmlns="http://www.w3.org/2000/svg">
<path d="M155.18 137.412C165.706 135.478 180.614 143.441 180.129 136.059C179.545 127.167 159.664 131.805 159.664 131.805C171.66 125.53 180.52 107.45 170.774 111.316C161.029 115.183 152.993 134.706 152.993 134.706C148.402 120.335 125.555 107.45 130.818 103.005C136.082 98.5596 146.801 107.646 145.437 120.789C144.072 133.933 121.657 136.831 107.234 120.209C92.8111 103.586 57.726 110.157 51.8792 87.3479C46.0324 64.5373 52.2696 25.8783 66.6925 16.2135C81.1174 6.54875 97.879 18.9201 97.879 18.9201C97.879 18.9201 123.998 -9.68895 141.15 5.38905C158.302 20.4671 165.32 93.9209 161.421 107.065C157.523 120.209 152.995 118.662 152.995 118.662C152.995 118.662 168.437 58.7389 193.387 37.09C218.336 15.4411 237.438 13.5089 250.692 18.1477C263.945 22.7864 265.895 48.6889 265.895 48.6889C265.895 48.6889 293.962 80.3898 273.302 87.7352C252.642 95.0806 216.778 117.889 205.863 121.755C194.948 125.622 177.406 126.781 182.083 119.436C186.763 112.091 213.66 105.518 241.727 110.544C269.794 115.57 303.319 134.899 304.879 149.977C306.439 165.053 292.404 164.281 292.404 164.281C292.404 164.281 302.54 202.167 270.575 211.06C238.61 219.952 188.323 156.55 172.34 146.885C156.357 137.221 139.312 134.157 116.207 161.576C93.1008 188.995 55.3955 208.742 37.853 203.329C20.3125 197.918 23.2349 182.84 23.2349 182.84C23.2349 182.84 3.93934 181.295 1.21014 163.123C-1.51906 144.951 23.2349 118.664 23.2349 118.664C23.2349 118.664 23.8186 101.651 32.7851 99.7193C41.7495 97.7872 113.477 97.3999 141.935 126.009C170.392 154.618 184.036 232.711 178.189 255.906C172.342 279.102 158.698 263.639 151.682 270.984C144.664 278.33 93.2077 291.861 85.801 265.186C78.3944 238.511 102.174 172.788 120.496 149.207C138.817 125.626 148.953 136.063 148.953 136.063C151.915 138.244 151.987 138.277 152.608 139.995" stroke="#CC28B9" stroke-width="2" stroke-miterlimit="10" stroke-linecap="round" stroke-linejoin="round"/>
</svg>
