<svg width="512" height="448" viewBox="0 0 512 448" fill="none" xmlns="http://www.w3.org/2000/svg">
<path d="M137.236 74.9545L178.178 48.0615M146.01 86.0626L161.801 75.5392M243.686 235.144L283.457 207.666M336.096 323.427C337.268 322.846 342.531 318.753 341.945 316.996C341.359 315.238 313.285 260.867 312.701 259.117C312.118 257.367 311.081 254.923 310.947 252.102C310.78 248.613 311.664 246.667 312.701 243.332C313.734 240.011 315.976 238.617 316.211 235.147C316.416 232.108 315.039 228.713 314.456 227.547C313.872 226.382 294.877 192.181 281.118 170.253C259.14 135.228 220.219 83.8201 219.711 83.15C219.695 83.1291 219.717 83.1595 219.702 83.1376C219.239 82.4295 176.324 16.8434 169.992 14.7416C163.624 12.6284 160.213 12.2195 154.785 14.7416L115.013 40.4653C111.215 43.4006 110.283 46.5275 111.504 55.6657C112.725 64.8039 143.18 106.764 164.728 138.683C197.284 186.911 246.609 252.102 252.459 259.117C258.31 266.133 257.613 266.127 262.402 268.471C266.385 270.422 269.086 271.045 273.515 270.81C277.055 270.622 278.777 268.468 282.288 268.471H282.304C285.799 268.475 285.799 268.475 288.137 270.81C290.478 273.148 298.29 280.981 304.513 287.764C316.352 300.67 331.416 320.5 333.172 322.257C334.922 324.009 334.925 324.008 336.085 323.432L336.096 323.427ZM339.375 367.977C337.015 371.74 330.149 382.946 326.741 391.24C323.573 398.95 320.339 411.577 320.307 411.701C320.306 411.705 320.308 411.699 320.307 411.703C320.274 411.827 317.686 421.618 320.307 426.903C321.958 430.233 323.609 431.915 326.741 433.918C330.15 436.099 332.666 436.353 336.683 436.841C339.349 437.165 343.412 436.903 344.165 436.85C344.246 436.844 344.323 436.831 344.401 436.806C345.248 436.538 350.617 434.767 353.06 432.164C356.52 428.479 357.164 425.391 358.324 420.472C359.383 415.977 358.87 412.812 358.909 408.194C358.961 401.925 357.898 398.38 355.984 392.409C353.002 383.103 344.11 371.546 341.158 367.867C340.68 367.272 339.78 367.331 339.375 367.977Z" stroke="#7129CC" stroke-width="2"/>
</svg>
