<svg width="442" height="234" viewBox="0 0 442 234" fill="none" xmlns="http://www.w3.org/2000/svg">
<path d="M204.617 219.396L202.533 151.911V11.4929C202.533 11.4929 202.327 5.00828 205.034 2.69052C207.32 0.73371 212.538 1.01388 212.538 1.01388L421.822 2.69052C432.889 3.04997 436.72 5.49378 438.081 14.8461C438.081 14.8461 441.029 74.0973 440.999 112.091C440.969 149.103 438.081 206.821 438.081 206.821C438.122 219.294 435.468 222.64 424.323 222.749L202.95 220.653M243.39 190.474C242.723 189.803 235.33 177.619 231.717 171.611L251.311 188.797L231.717 157.36L265 190.474L231.717 140.5L274.657 187L235.5 126.762C256.206 148.558 287.498 186.189 285.497 182.5L254.5 129.695L284.663 160.5L269.5 131L285.497 146L279.5 133M202.95 173.289L66.6237 213.947C66.6237 213.947 63.3781 214.807 61.622 213.947C60.0658 213.185 59.3622 211.851 58.7026 210.594C58.3067 209.839 38.6926 148.139 38.6926 148.139C38.6926 148.139 25.6328 100.589 19.5141 80.2352C18.0818 75.8627 19.932 72.6903 22.4324 71.4329C24.9328 70.1755 168.347 30.7744 168.347 30.7744C173.503 29.5869 175.842 30.097 178.352 34.5469L202.533 105.385M202.534 58.439C202.534 58.439 192.527 24.0679 190.444 18.1997C188.36 12.3314 184.608 9.3973 177.937 10.2356C174.737 10.6376 127.077 21.9034 94.9748 31.1936C59.8956 41.3453 8.34365 59.4439 6.17432 60.5347C2.00638 62.6305 -0.110421 66.7101 1.58844 72.2712C1.58844 72.2712 44.1121 210.594 47.4473 219.815C50.7825 229.037 60.7881 234.067 66.2078 232.809C71.6274 231.552 203.367 188.798 203.367 188.798M78.3114 198.018L62.8862 184.605L90.8184 194.665L62.8862 176.222L97.0719 186.282L56 160.713L108.5 180L68.5 157.5L101.932 166.582L82.5 155L97.0719 157.5M218.377 194.666C218.377 194.666 217.96 30.3553 218.377 27.002C218.794 23.6488 220.878 20.2955 228.799 19.8763C236.72 19.4572 408.483 22.3913 408.483 22.3913C415.653 23.2162 418.519 24.9396 418.488 33.7086L420.156 191.312C419.739 198.24 418.547 201.349 410.567 202.211H225.047C219.817 201.908 218.506 200.097 218.377 194.666Z" stroke="#284CCC" stroke-width="2"/>
</svg>
