<svg width="238" height="54" viewBox="0 0 238 54" fill="none" xmlns="http://www.w3.org/2000/svg">
<g id="Group 4">
<path id="Vector" fill-rule="evenodd" clip-rule="evenodd" d="M129.866 33.3055H124.019L115.619 9.42578H120.914L126.944 27.4693L132.971 9.42578H138.269L144.295 27.4693L150.322 9.42578H155.621L147.217 33.3055H141.374L135.622 16.9657L129.866 33.3055Z" fill="#9587A8"/>
<path id="Vector_2" fill-rule="evenodd" clip-rule="evenodd" d="M176.169 33.3054H171.511V30.1357C169.499 32.513 166.804 33.695 163.429 33.6818C160.901 33.6818 158.807 32.9791 157.148 31.574C155.489 30.1687 154.66 28.2906 154.66 25.9398C154.66 23.5915 155.544 21.8337 157.312 20.6662C159.078 19.4988 161.464 18.915 164.467 18.915H171.085V17.9957C171.085 14.8261 169.29 13.2412 165.699 13.2412C163.446 13.2412 161.102 14.0481 158.666 15.6621L156.385 12.524C159.235 10.2537 162.783 9.03204 166.431 9.06511C169.293 9.06511 171.629 9.77564 173.438 11.1967C175.248 12.6178 176.155 14.8551 176.158 17.9086V33.3054H176.169ZM171.053 24.4183V22.3858H165.309C161.623 22.3858 159.782 23.5229 159.783 25.7971C159.759 26.3223 159.873 26.8449 160.111 27.3132C160.351 27.7816 160.71 28.1795 161.152 28.4676C162.065 29.083 163.337 29.3895 164.967 29.3868C166.499 29.4164 168 28.9446 169.237 28.0437C169.818 27.6348 170.29 27.0887 170.609 26.4539C170.927 25.8192 171.082 25.1157 171.06 24.4065L171.053 24.4183Z" fill="#9587A8"/>
<path id="Vector_3" fill-rule="evenodd" clip-rule="evenodd" d="M184.977 33.3057H179.865V0H184.977V33.3057Z" fill="#9587A8"/>
<path id="Vector_4" fill-rule="evenodd" clip-rule="evenodd" d="M194.066 33.3057H188.953V0H194.066V33.3057Z" fill="#9587A8"/>
<path id="Vector_5" fill-rule="evenodd" clip-rule="evenodd" d="M220.64 23.5751H201.597C201.649 24.4134 201.893 25.2287 202.314 25.9567C202.734 26.6848 203.317 27.3058 204.019 27.7711C205.511 28.8302 207.303 29.3855 209.135 29.356C212.174 29.356 214.486 28.413 216.071 26.5269L218.997 29.6689C216.379 32.3341 212.969 33.6654 208.765 33.6627C205.537 33.7292 202.412 32.5249 200.067 30.3108C197.682 28.0814 196.49 25.0887 196.49 21.3326C196.49 17.5765 197.708 14.5917 200.144 12.3782C202.473 10.2022 205.558 9.01186 208.75 9.05793C212.054 9.05793 214.862 10.0379 217.172 11.9978C219.484 13.9578 220.641 16.6573 220.642 20.0964V23.5751H220.64ZM201.597 19.613H215.511C215.511 17.6082 214.871 16.0669 213.591 14.9892C212.265 13.8944 210.586 13.3196 208.865 13.3727C207.042 13.357 205.267 13.9497 203.82 15.0565C203.105 15.5775 202.528 16.2651 202.14 17.0595C201.754 17.8537 201.568 18.7305 201.597 19.613Z" fill="#9587A8"/>
<path id="Vector_6" fill-rule="evenodd" clip-rule="evenodd" d="M228.953 13.4679V25.5841C228.9 26.573 229.227 27.5448 229.867 28.3021C230.193 28.646 230.591 28.9146 231.033 29.0891C231.474 29.2636 231.948 29.3398 232.423 29.3125C233.52 29.3125 234.57 28.7841 235.575 27.7276L237.658 31.2856C236.042 32.799 233.912 33.6481 231.695 33.6629C230.667 33.6803 229.643 33.4932 228.689 33.1122C227.734 32.7312 226.864 32.1641 226.131 31.444C224.596 29.9622 223.827 27.964 223.824 25.4494V13.4679H220.768V9.42652H223.824V1.93018H228.953V9.42652H235.345V13.4679H228.953Z" fill="#9587A8"/>
<path id="Vector_7" fill-rule="evenodd" clip-rule="evenodd" d="M12.6647 33.5436C9.43154 33.5978 6.30799 32.3759 3.97506 30.1441C1.55288 27.8777 0.341797 24.9141 0.341797 21.2531C0.341797 17.5922 1.60589 14.6125 4.13406 12.3145C6.66225 10.0165 9.74429 8.86881 13.3802 8.87144C15.0917 8.83546 16.7924 9.1483 18.3783 9.79077C19.9641 10.4333 21.4016 11.3918 22.6025 12.6077L19.6052 16.2528C17.5143 14.4541 15.4089 13.5547 13.2888 13.5547C11.2486 13.5255 9.2745 14.2754 7.7713 15.6506C7.00705 16.3242 6.40104 17.1572 5.99637 18.0905C5.5917 19.024 5.39831 20.0346 5.42996 21.051C5.40979 22.0933 5.60516 23.1287 6.00386 24.0926C6.40257 25.0565 6.99608 25.9282 7.74746 26.6535C8.49205 27.4045 9.38291 27.9958 10.3653 28.391C11.3476 28.7862 12.4007 28.977 13.4597 28.9514C15.7175 28.9514 17.8456 27.9306 19.8438 25.8888L22.833 29.1218C19.8967 32.0723 16.5074 33.5463 12.6647 33.5436Z" fill="#9587A8"/>
<path id="Vector_8" fill-rule="evenodd" clip-rule="evenodd" d="M45.5503 29.9618C43.1255 32.3391 40.0965 33.5277 36.4632 33.5277C32.83 33.5277 29.7996 32.3391 27.3722 29.9618C26.1928 28.8297 25.2612 27.4666 24.6359 25.9585C24.0107 24.4502 23.7053 22.8292 23.7388 21.1975C23.7074 19.5686 24.0139 17.9507 24.6392 16.4453C25.2643 14.9399 26.1948 13.5795 27.3722 12.4492C29.7916 10.0719 32.8207 8.8833 36.4592 8.8833C40.0978 8.8833 43.1269 10.0719 45.5464 12.4492C46.7238 13.5796 47.6546 14.9399 48.2805 16.4453C48.9063 17.9506 49.2138 19.5684 49.1837 21.1975C49.2154 22.8278 48.9091 24.447 48.2839 25.9536C47.6587 27.4604 46.7281 28.8223 45.5503 29.9539V29.9618ZM30.9855 26.8554C31.6978 27.5766 32.5523 28.1428 33.4952 28.5185C34.4379 28.8942 35.4484 29.0714 36.4632 29.0386C37.4774 29.071 38.4873 28.8938 39.4293 28.5181C40.3713 28.1423 41.2252 27.5763 41.9369 26.8554C43.376 25.4001 44.0955 23.5167 44.0955 21.2055C44.0955 18.8943 43.376 17.011 41.9369 15.5555C41.2247 14.8355 40.3708 14.2699 39.4287 13.8943C38.4869 13.5186 37.4772 13.3409 36.4632 13.3724C35.4485 13.3406 34.4382 13.5181 33.4956 13.8938C32.553 14.2695 31.6984 14.8352 30.9855 15.5555C29.5465 17.011 28.827 18.8916 28.827 21.1975C28.827 23.5036 29.5465 25.3869 30.9855 26.8476V26.8554Z" fill="#9587A8"/>
<path id="Vector_9" fill-rule="evenodd" clip-rule="evenodd" d="M58.6801 33.183L48.957 9.23193H54.228L61.586 27.3309L68.9479 9.23193H74.219L64.4958 33.183H58.6801Z" fill="#9587A8"/>
<path id="Vector_10" fill-rule="evenodd" clip-rule="evenodd" d="M98.4811 23.4121H79.5355C79.5849 24.2515 79.8279 25.0684 80.2458 25.7989C80.6636 26.5293 81.2449 27.1539 81.9445 27.6238C83.4255 28.6836 85.2098 29.2394 87.0327 29.2087C90.0617 29.2087 92.3633 28.263 93.9374 26.3719L96.8473 29.5415C94.2395 32.212 90.8475 33.5472 86.6709 33.5472C83.4528 33.6165 80.3389 32.4093 78.0132 30.1914C75.6281 27.9566 74.4355 24.9561 74.4355 21.1893C74.4355 17.4227 75.6466 14.4287 78.0687 12.2072C80.3809 10.0286 83.4537 8.83336 86.6352 8.87508C89.9213 8.87508 92.7158 9.85769 95.0187 11.8229C97.3217 13.7881 98.4717 16.4969 98.4692 19.9492V23.4161L98.4811 23.4121ZM79.5355 19.45H93.3929C93.3929 17.4399 92.7568 15.8946 91.4848 14.8144C90.1697 13.7177 88.4961 13.141 86.7823 13.1938C84.9661 13.1784 83.1974 13.7729 81.7616 14.8817C81.0458 15.4052 80.4689 16.095 80.0809 16.8911C79.693 17.6872 79.5058 18.5655 79.5355 19.45Z" fill="#9587A8"/>
<path id="Vector_11" fill-rule="evenodd" clip-rule="evenodd" d="M114.472 13.9587C111.959 13.9587 110.067 14.7684 108.795 16.3875C107.523 18.0067 106.883 20.1833 106.875 22.9171V33.183H101.787V9.23191H106.875V14.0657C107.672 12.5835 108.818 11.3163 110.214 10.373C111.524 9.44242 113.083 8.92484 114.69 8.88721L114.734 13.9746L114.472 13.9587Z" fill="#9587A8"/>
<path id="Vector_12" d="M0.537109 48.0731C0.537109 46.0127 2.36567 45.4738 4.11472 45.4738H5.80813V44.7646C5.80813 43.7661 5.26354 43.3779 4.01137 43.3779C3.53944 43.3852 3.06886 43.4302 2.60418 43.5126V44.4437H1.07773V42.1972C2.18814 41.9655 3.31828 41.8409 4.4526 41.8247C6.55148 41.8247 7.68836 42.3992 7.68836 44.6299V48.9328H8.7219V50.4701H5.82403V49.6261H5.78825C5.09261 50.2917 4.16054 50.6551 3.19647 50.6365C1.50306 50.6207 0.537109 49.543 0.537109 48.0731ZM5.82403 46.5872H4.38503C3.04541 46.5872 2.39747 46.9398 2.39747 47.9224C2.39747 48.7148 3.02554 49.1863 3.93982 49.1863C4.61747 49.1828 5.27623 48.9633 5.82005 48.5603L5.82403 46.5872Z" fill="#9587A8"/>
<path id="Vector_13" d="M15.5654 48.932H16.4956V45.0808C16.4956 44.0507 16.098 43.393 14.9691 43.393C14.217 43.4493 13.4982 43.7249 12.9021 44.1854V48.932H13.8561V50.4694H9.98828V48.932H11.0417V43.5475H9.98828V42.0102H12.9021V43.1593H12.9378C13.3012 42.7544 13.7442 42.4284 14.2393 42.2015C14.7344 41.9746 15.2709 41.8514 15.8158 41.8398C17.5132 41.8398 18.3599 42.9056 18.3599 44.645V48.932H19.3934V50.4694H15.5654V48.932Z" fill="#9587A8"/>
<path id="Vector_14" d="M30.2708 38.9712L33.5582 48.932H34.4725V50.4693H30.2192V48.932H31.4117L30.7956 46.9509H26.884L26.2043 48.932H27.373V50.4693H23.207V48.932H24.2724L27.1702 40.5244H25.9776V38.9712H30.2708ZM28.8995 40.7265L27.3093 45.5207H30.4616L28.9351 40.7265H28.8995Z" fill="#9587A8"/>
<path id="Vector_15" d="M34.9473 46.2299C34.9473 43.5991 36.0325 41.8398 38.9462 41.8398C41.8601 41.8398 42.9213 43.5991 42.9213 46.2299C42.9213 48.8608 41.8402 50.6199 38.9462 50.6199C36.0524 50.6199 34.9473 48.8646 34.9473 46.2299ZM36.911 46.2299C36.911 47.9019 37.3682 49.0866 38.9462 49.0866C40.5245 49.0866 40.9776 47.8979 40.9776 46.2299C40.9776 44.5619 40.5205 43.3771 38.9462 43.3771C37.3721 43.3771 36.911 44.5738 36.911 46.2299Z" fill="#9587A8"/>
<path id="Vector_16" d="M49.4676 48.932H50.4018V45.0808C50.4018 44.0507 50.0042 43.393 48.8753 43.393C48.123 43.4483 47.404 43.724 46.8082 44.1854V48.932H47.7424V50.4694H43.8945V48.932H44.948V43.5475H43.8945V42.0102H46.8082V43.1593H46.852C47.2154 42.7544 47.6583 42.4284 48.1534 42.2015C48.6485 41.9746 49.1851 41.8514 49.7299 41.8398C51.4234 41.8398 52.274 42.9056 52.274 44.645V48.932H53.3036V50.4694H49.4756L49.4676 48.932Z" fill="#9587A8"/>
<path id="Vector_17" d="M63.2771 44.4429V43.5118C62.8272 43.4115 62.3667 43.3663 61.9057 43.3771C60.3634 43.3771 59.6161 44.4587 59.6161 46.2297C59.6161 48.0009 60.3634 49.0865 61.9057 49.0865C62.7815 49.0973 63.6544 48.9825 64.4975 48.7457L64.8194 50.2316C63.8699 50.4908 62.8902 50.624 61.9057 50.6277C58.7257 50.6277 57.6523 48.8726 57.6523 46.2377C57.6523 43.6029 58.7217 41.8477 61.9057 41.8477C62.8902 41.8515 63.8699 41.9846 64.8194 42.2438V44.4587L63.2771 44.4429Z" fill="#9587A8"/>
<path id="Vector_18" d="M65.8203 46.2299C65.8203 43.5991 66.9016 41.8398 69.8153 41.8398C72.729 41.8398 73.8143 43.5991 73.8143 46.2299C73.8143 48.8608 72.729 50.6199 69.8153 50.6199C66.9016 50.6199 65.8203 48.8646 65.8203 46.2299ZM67.7841 46.2299C67.7841 47.9019 68.2412 49.0866 69.8153 49.0866C71.3894 49.0866 71.8505 47.8979 71.8505 46.2299C71.8505 44.5619 71.3934 43.3771 69.8153 43.3771C68.2372 43.3771 67.7841 44.5738 67.7841 46.2299Z" fill="#9587A8"/>
<path id="Vector_19" d="M80.2417 48.9323H81.172V45.0138C81.1401 44.0351 80.6989 43.3932 79.6455 43.3932C78.9494 43.4485 78.2899 43.7265 77.7653 44.1858V48.9323H78.6995V50.4696H74.8516V48.9323H75.9048V43.5479H74.8516V42.0106H77.7653V43.1595H77.8011C78.3591 42.4717 79.1569 42.0189 80.0351 41.8916C80.2996 41.8682 80.5656 41.8682 80.8301 41.8916C81.2586 41.903 81.6739 42.043 82.0213 42.2932C82.3688 42.5433 82.6325 42.8923 82.7779 43.2942C83.1434 42.8568 83.5985 42.5021 84.1127 42.254C84.6268 42.006 85.1883 41.8703 85.7592 41.856C87.4527 41.856 88.2994 42.9217 88.2994 44.6611V48.9323H89.3329V50.4696H85.5049V48.9323H86.4351V45.0812C86.4351 44.051 85.9779 43.3932 84.9126 43.3932C84.1493 43.3932 83.4735 43.8846 82.9966 44.2372C82.9966 44.4749 83.0323 44.7285 83.0323 44.9979V48.9323H83.9625V50.4696H80.2417V48.9323Z" fill="#9587A8"/>
<path id="Vector_20" d="M89.928 42.0102H92.8417V42.8542H92.8736C93.5352 42.2103 94.4214 41.8468 95.3461 41.8398C97.7311 41.8398 98.4626 43.8209 98.4626 46.2299C98.4626 48.6388 97.6159 50.6199 95.2427 50.6199C94.8009 50.6258 94.3623 50.5436 93.9527 50.3783C93.5432 50.2129 93.1708 49.9678 92.8577 49.6572H92.8258V52.2919H93.8594V53.8292H89.9121V52.2919H90.9735V43.5475H89.924L89.928 42.0102ZM94.6186 43.3771C93.9737 43.3874 93.3499 43.6072 92.8417 44.0032V48.4606C93.3499 48.8566 93.9737 49.0764 94.6186 49.0866C96.0934 49.0866 96.4988 47.8028 96.4988 46.2299C96.4988 44.6569 96.0934 43.3851 94.6186 43.3851V43.3771Z" fill="#9587A8"/>
<path id="Vector_21" d="M99.4492 48.0731C99.4492 46.0127 101.282 45.4738 103.027 45.4738H104.72V44.7646C104.72 43.7661 104.18 43.3779 102.924 43.3779C102.453 43.385 101.984 43.4301 101.52 43.5126V44.4437H99.9779V42.1972C101.087 41.9658 102.216 41.841 103.349 41.8247C105.448 41.8247 106.585 42.3992 106.585 44.6299V48.9328H107.618V50.4701H104.72V49.6261H104.685C103.989 50.2917 103.057 50.6551 102.093 50.6365C100.415 50.6207 99.4492 49.543 99.4492 48.0731ZM104.736 46.5872H103.297C101.958 46.5872 101.31 46.9398 101.31 47.9224C101.31 48.7148 101.938 49.1863 102.852 49.1863C103.53 49.1828 104.188 48.9633 104.732 48.5603L104.736 46.5872Z" fill="#9587A8"/>
<path id="Vector_22" d="M114.477 48.932H115.408V45.0808C115.408 44.0507 115.01 43.393 113.885 43.393C113.133 43.4483 112.414 43.724 111.818 44.1854V48.932H112.748V50.4694H108.904V48.932H109.954V43.5475H108.904V42.0102H111.818V43.1593H111.85C112.214 42.754 112.657 42.4277 113.153 42.2006C113.649 41.9737 114.186 41.8509 114.732 41.8398C116.425 41.8398 117.272 42.9056 117.272 44.645V48.932H118.306V50.4694H114.477V48.932Z" fill="#9587A8"/>
<path id="Vector_23" d="M124.082 42.0107H127.66V43.548H127L124.05 50.8066C123.307 52.5975 122.253 54.0001 120.492 54.0001C120.032 53.9981 119.573 53.9529 119.121 53.8654L119.292 52.3796C119.554 52.4274 119.82 52.4552 120.087 52.4628C121.105 52.4628 121.764 51.6189 122.102 50.6561L119.196 43.548H118.453V42.0107H122.377V43.548H121.291L123.323 48.8335H123.358L125.159 43.548H124.09L124.082 42.0107Z" fill="#9587A8"/>
</g>
</svg>
