<svg width="241" height="70" viewBox="0 0 241 70" fill="none" xmlns="http://www.w3.org/2000/svg">
<mask id="mask0_273_977" style="mask-type:luminance" maskUnits="userSpaceOnUse" x="0" y="0" width="241" height="70">
<path d="M240.672 0.5H0.671875V69.5H240.672V0.5Z" fill="white"/>
</mask>
<g mask="url(#mask0_273_977)">
<path d="M174.502 24.7759C171.792 24.7759 168.58 25.9337 166.513 31.0666H165.704C164.693 26.3496 161.619 24.7759 158.496 24.7759C155.511 24.7759 153.133 26.3006 151.341 30.4835H150.601V25.5138H144.25V51.3327H150.678V38.0094C150.678 33.1172 153.29 30.9768 156.138 30.9768C159.811 30.9768 160.685 34.3525 160.685 37.8709V51.3246H167.108V38.0094C167.108 33.1172 169.774 30.9768 172.573 30.9768C176.246 30.9768 177.115 34.3974 177.115 37.9075V51.3246H183.543V35.0455C183.543 28.2005 179.089 24.7759 174.502 24.7759Z" fill="#9587A8"/>
<path d="M203.795 25.1309C201.728 31.0546 199.661 36.8846 197.917 45.0262H197.108C195.609 38.2602 193.63 31.6113 191.187 25.1309H184.092L194.006 52.0588L190.564 61.1258H197.404L210.671 25.1309H203.795Z" fill="#9587A8"/>
<path d="M113.835 14.2329H107.65V51.2471H113.835V14.2329Z" fill="#9587A8"/>
<path d="M135.779 42.3313C134.626 44.9282 132.414 46.4081 129.712 46.4081C126.027 46.4081 123.312 44.0232 122.799 40.3336V40.1949H141.503V38.5153C141.503 28.4657 134.913 24.8984 129.275 24.8984C121.925 24.8984 116.59 30.6468 116.59 38.5641C116.59 46.4816 121.994 52.018 129.736 52.018C135.164 52.018 139.682 49.2212 141.555 44.7122L135.779 42.3313ZM122.936 35.6247C123.652 32.2287 126.116 30.2066 129.242 30.2066C132.478 30.2066 135.087 32.1838 135.508 35.6328V35.7715H122.896L122.936 35.6247Z" fill="#9587A8"/>
<path d="M99.0971 42.3314C97.9443 44.9284 95.7358 46.4083 93.0298 46.4083C89.3448 46.4083 86.6306 44.0234 86.1129 40.3337V40.1951H104.861V38.5154C104.861 28.4659 98.2761 24.8986 92.6332 24.8986C90.3287 24.8555 88.0595 25.4724 86.089 26.6776C84.1185 27.8828 82.5278 29.6267 81.5016 31.707C82.0023 32.7969 82.3743 33.9421 82.61 35.1194C83.2507 38.423 82.7841 41.8478 81.2832 44.855C83.3421 49.25 87.6379 51.9977 93.0945 51.9977C98.5511 51.9977 103.041 49.2011 104.918 44.6919L99.0971 42.3314ZM86.2585 35.6249C86.9703 32.2289 89.4337 30.2067 92.5606 30.2067C95.7964 30.2067 98.4095 32.184 98.8261 35.633V35.7717H86.2261L86.2585 35.6249Z" fill="#9587A8"/>
<path d="M68.2001 21.8004C68.2001 21.6455 68.2366 21.4905 68.2527 21.3397C68.6045 18.0496 68.4306 14.7392 66.3597 12.342C65.8447 11.7542 65.2479 11.2447 64.5879 10.8294C61.4693 8.86029 57.3071 8.76652 53.8284 9.69606C49.1768 10.9517 45.2006 14.0176 41.8635 17.5278C35.6221 24.0549 31.0756 32.5756 30.6913 41.6305C30.5983 43.779 30.7722 46.0662 31.9372 47.8763C33.361 50.09 36.0226 51.1949 38.6194 51.5455C44.339 52.263 50.0626 49.7719 54.609 46.2047C55.3534 45.6204 56.0707 45.0075 56.7611 44.3661C56.4062 43.7977 56.0887 43.2067 55.8105 42.5967C52.9426 36.2938 54.1398 28.7352 59.7219 24.2914C61.1615 23.1336 62.8596 22.3471 64.6689 22.0002C65.8325 21.7806 67.0204 21.7203 68.2001 21.8208V21.8004Z" fill="#9587A8"/>
<path d="M81.4721 31.7067C81.3871 31.515 81.3021 31.299 81.2051 31.1278C81.1808 31.0747 81.1524 31.0258 81.1282 30.977L81.0595 30.8506C80.9179 30.5774 80.7722 30.3042 80.6145 30.0352C80.5053 29.8517 80.3921 29.6683 80.2748 29.4889C77.5929 25.3141 73.0787 22.2156 68.2006 21.7998C68.1358 22.3339 68.059 22.868 67.97 23.3979C67.8811 23.9279 67.784 24.4579 67.6706 24.9839C67.614 25.2489 67.5574 25.5098 67.4927 25.7707C67.3714 26.2966 67.2379 26.8184 67.0882 27.3362C67.0153 27.5931 66.9426 27.854 66.8616 28.1108C66.7445 28.4941 66.619 28.8813 66.4895 29.2606C66.085 30.4062 65.6522 31.5354 65.1506 32.6361L65.0738 32.7992C65.0253 32.9093 64.9727 33.0154 64.9242 33.1255L64.6087 33.7696C64.5561 33.8757 64.5075 33.9857 64.4509 34.0916C64.2082 34.5728 63.9574 35.0457 63.6905 35.5146C63.4235 35.9834 63.1566 36.4481 62.8814 36.9047C62.6064 37.3613 62.303 37.8099 61.9997 38.2541C61.6963 38.6986 61.3848 39.1349 61.0653 39.5628C60.7458 39.991 60.41 40.4149 60.0703 40.8308C59.7305 41.2466 59.3826 41.6462 59.0226 42.0538C58.9053 42.1844 58.7798 42.3147 58.6585 42.4615C58.4158 42.7224 58.1732 42.9874 57.9224 43.2402L57.6271 43.5296C57.344 43.811 57.0608 44.0923 56.7695 44.345C61.6235 52.1932 73.1232 55.3078 79.6316 47.3782C79.9026 47.048 80.1453 46.7015 80.3798 46.3509L80.4527 46.2408C80.5538 46.086 80.659 45.935 80.7521 45.7802L80.8774 45.5722C81.0109 45.3398 81.1363 45.1034 81.2577 44.8628C80.3556 42.8916 79.8997 40.7429 79.9229 38.5722C79.8959 36.1926 80.4267 33.8403 81.4721 31.7067Z" fill="#9587A8"/>
</g>
</svg>
