<svg width="180" height="36" viewBox="0 0 180 36" fill="none" xmlns="http://www.w3.org/2000/svg">
<path d="M72.1836 21.5699C72.1836 18.4199 72.7437 16.2499 73.9339 14.9199C74.844 14.0099 76.0342 13.5199 77.3645 13.5199C78.9047 13.5199 80.0949 14.0099 80.9351 14.9199C81.3551 15.3399 81.6352 15.8999 81.9152 16.3899H88.6364C88.1463 14.4999 87.3061 12.8199 86.1859 11.28C84.0856 8.89996 81.1451 7.70996 77.2944 7.70996C73.6538 7.70996 70.8533 8.96996 68.753 11.42C66.7927 13.7999 65.8125 17.1599 65.8125 21.4299C65.8125 21.4999 65.8125 21.7099 65.8125 21.7799C65.8125 26.0499 66.7927 29.4099 68.753 31.7899C70.7833 34.2399 73.6538 35.4999 77.2944 35.4999C81.1451 35.4999 84.0856 34.3099 86.1859 31.9299C87.3761 30.3899 88.2163 28.6399 88.6364 26.8199H83.2454C82.5453 26.8199 81.8452 27.1699 81.4251 27.7299C81.2851 27.9399 81.1451 28.0799 81.0051 28.2899C80.1649 29.1999 78.9747 29.6899 77.4345 29.6899C76.1742 29.6899 74.914 29.1999 74.0039 28.2899C72.7437 26.9599 72.1836 24.7199 72.1836 21.5699Z" fill="#9587A8"/>
<path d="M108.658 8.40998C106.767 7.56998 104.667 7.42998 102.637 7.98998C100.536 8.47998 98.7859 9.87998 97.7357 11.77V2.80999C97.7357 1.55 96.6855 0.5 95.4253 0.5H91.2246V35.0099H97.7357V21.2899C97.7357 18.98 98.2258 17.09 99.1359 15.76C100.046 14.43 101.656 13.66 103.267 13.73C104.807 13.66 106.347 14.5 107.187 15.83C107.677 16.6 108.097 17.44 108.237 18.42C108.378 19.33 108.448 20.24 108.448 21.1499V35.0099H114.889V19.47C114.889 16.39 114.258 14.01 113.068 12.26C112.018 10.58 110.408 9.24998 108.658 8.40998Z" fill="#9587A8"/>
<path d="M60.4184 11.35C58.318 8.96996 55.3775 7.70996 51.5269 7.70996C47.8862 7.70996 45.0858 8.96996 42.9854 11.42C41.0251 13.7999 40.0449 17.1599 40.0449 21.4299C40.0449 25.9099 41.0951 29.3399 43.1254 31.7199C45.1558 34.1699 48.0263 35.4299 51.6669 35.4299C54.6774 35.4299 57.1278 34.5899 59.0881 33.1199C61.0485 31.6499 62.3787 29.4799 63.0788 26.6799H57.9679C57.1978 26.6799 56.4277 27.0299 56.0076 27.7299C55.3775 28.5699 54.1873 29.6199 52.0169 29.6199C50.3367 29.6199 49.0764 29.0599 48.2363 28.0099C47.3262 27.0299 46.8361 25.4899 46.8361 23.3899H63.3589C63.3589 18.1399 62.4487 13.7999 60.4184 11.35ZM46.8361 18.9099C46.9061 17.1599 47.3962 15.8299 48.2363 14.9199C49.1465 14.0099 50.4067 13.4499 51.6669 13.5199C53.2071 13.5199 54.4674 14.0799 55.2375 14.9199C56.0076 15.7599 56.4277 17.0899 56.5677 18.9099H46.8361Z" fill="#9587A8"/>
<path d="M44.1076 2.80999C44.1076 1.55 43.0575 0.5 41.7973 0.5H19.6035V6.58998H28.495V34.9399H35.2862V6.58998H44.1076V2.80999Z" fill="#9587A8"/>
<path d="M157.665 9.03984C156.125 9.45984 154.654 10.2298 153.394 11.2098C152.064 12.3298 151.014 13.7998 150.384 15.4798C149.613 17.5798 149.193 19.8198 149.263 22.0598V35.0098H155.985V21.2198C155.985 19.1898 156.405 17.7198 157.315 16.8098C158.225 15.8998 159.555 15.4098 161.445 15.4098H163.616V8.33984H162.636C160.955 8.33984 159.275 8.54984 157.665 9.03984Z" fill="#9587A8"/>
<path d="M177.62 15.41C178.88 15.41 179.93 14.36 179.93 13.1V8.26998H172.299V2.80999C172.299 1.55 171.249 0.5 169.989 0.5H165.578V21.7799C165.508 24.0199 165.928 26.2599 166.698 28.3599C167.328 29.9699 168.378 31.4399 169.709 32.6299C170.969 33.6799 172.369 34.3799 173.979 34.7999C175.59 35.2899 177.27 35.4999 179.02 35.4999H180V28.4299H177.83C176.01 28.4299 174.609 27.9399 173.699 27.0299C172.789 26.1199 172.369 24.6499 172.369 22.6199V15.48L177.62 15.41Z" fill="#9587A8"/>
<path d="M130.362 0.5C129.032 0.5 127.842 1.34 127.422 2.59999L116.5 34.9399H123.641L125.742 27.7999H138.624L140.794 34.9399H147.935L136.033 0.5H130.362ZM127.632 22.0599L132.183 7.42998L136.733 22.0599H127.632Z" fill="#9587A8"/>
<path d="M9.80078 34.9402H16.732V9.53027H9.80078V34.9402Z" fill="#9587A8"/>
<path d="M0 11.8403V16.9503H6.93117V9.53027H2.31039C1.05018 9.53027 0 10.5803 0 11.8403Z" fill="#9587A8"/>
<path d="M16.732 0.5H12.4612H12.1112C11.4811 0.5 10.921 0.779999 10.5009 1.13C10.5009 1.13 10.5009 1.13 10.4309 1.2C10.0108 1.62 9.80078 2.18 9.80078 2.80999V3.22999V6.65998H16.732V0.5Z" fill="#9587A8"/>
<path d="M6.93117 27.5908H0V34.9408H6.93117V27.5908Z" fill="#9587A8"/>
</svg>
