<svg width="147" height="54" viewBox="0 0 147 54" fill="none" xmlns="http://www.w3.org/2000/svg">
<g id="Group">
<path id="Vector" fill-rule="evenodd" clip-rule="evenodd" d="M50.2854 11.0459C46.9139 11.0459 35.9062 12.1222 35.9062 25.9685C35.9062 36.6949 43.4737 40.5008 49.9542 40.5008C56.9339 40.5008 61.2109 36.8999 62.6647 29.8001L62.7568 29.3631L61.2133 28.8317L61.0158 29.2306C59.319 32.6486 56.9118 34.3091 53.6581 34.3091C49.1334 34.3091 46.3814 30.8457 46.2624 25.0296H62.8009L62.8402 24.5632C62.8978 23.8747 62.8978 23.4709 62.8978 23.2967C62.8978 11.9295 53.2447 11.0459 50.2854 11.0459ZM50.175 13.12C51.7847 13.12 53.4299 14.1571 53.4299 21.8497C53.4299 22.0362 53.4299 22.4879 53.4054 23.0107H46.2673C46.4158 16.1735 47.6255 13.1188 50.1762 13.1188M78.5051 11.0459C75.1312 11.0459 64.1247 12.1222 64.1247 25.9685C64.1247 36.6949 71.6934 40.5008 78.1739 40.5008C85.1524 40.5008 89.4294 36.8999 90.8844 29.8001L90.974 29.3631L89.2625 28.7654L89.0638 29.1655C87.3216 32.6756 85.0383 34.3079 81.8778 34.3079C77.3506 34.3079 74.5999 30.8469 74.4809 25.0296H91.0219L91.0587 24.5632C91.1163 23.8747 91.1163 23.4709 91.1163 23.2967C91.1163 11.9295 81.4632 11.0459 78.5051 11.0459ZM78.3947 13.12C80.0032 13.12 81.6484 14.1571 81.6484 21.8497C81.6484 22.0362 81.6484 22.4879 81.6239 23.0107H74.4858C74.6355 16.1735 75.844 13.12 78.3947 13.12Z" fill="#9587A8"/>
<g id="Group_2">
<g id="Mask group">
<mask id="mask0_273_968" style="mask-type:luminance" maskUnits="userSpaceOnUse" x="90" y="10" width="32" height="44">
<g id="Group_3">
<path id="Vector_2" d="M121.739 53.9999H90.1523V10.3687H121.737V53.9999H121.739Z" fill="#FF4646"/>
</g>
</mask>
<g mask="url(#mask0_273_968)">
<path id="Vector_3" fill-rule="evenodd" clip-rule="evenodd" d="M111.008 10.3689C107.618 10.3689 104.965 11.9816 103.108 15.1639V10.8193H90.1523V11.6551L92.93 14.5994C93.1693 14.878 93.1668 14.932 93.1509 15.2866C93.1446 15.4125 93.1413 15.5386 93.141 15.6646V53.4037L94.0367 54.0001L103.124 50.117L103.11 37.3213C104.492 39.1708 106.772 40.1416 109.763 40.1416C116.813 40.1416 121.737 33.7782 121.737 24.6656C121.737 16.1126 117.425 10.3689 111.008 10.3689ZM111.38 25.1135C111.38 30.0668 110.006 35.851 106.134 35.851C104.94 35.851 103.819 35.4399 103.108 34.7453V18.1855C104.096 16.7091 105.361 15.8966 106.676 15.8966C110.563 15.8966 111.38 20.9088 111.38 25.1135Z" fill="#9587A8"/>
</g>
</g>
</g>
<path id="Vector_4" fill-rule="evenodd" clip-rule="evenodd" d="M139.996 22.6083L136.518 21.0521C133.33 19.6125 131.813 18.557 131.813 16.451C131.813 13.951 133.918 13.0637 135.719 13.0637H136.481C136.962 13.0637 137 13.13 137.298 13.6393L141.681 21.6339H142.422L145.78 12.7311L145.272 12.5716C142.129 11.5764 138.853 11.0621 135.556 11.0461C128.484 11.0461 123.915 14.6972 123.915 20.3477C123.915 24.059 125.837 26.9505 129.473 28.7104L133.173 30.4924C136.677 32.148 138.104 33.012 138.104 34.9278C138.104 37.0878 136.292 38.4833 133.491 38.4833H132.24C131.88 38.4833 131.704 38.3703 131.54 38.0341L127.05 29.1326H126.289L123.017 38.5778L123.487 38.7459C126.499 39.8284 130.395 40.5009 133.654 40.5009C141.472 40.5009 146.328 36.7663 146.328 30.755C146.328 26.0766 143.285 24.0749 139.996 22.6083ZM21.5693 13.794C21.5693 13.794 34.9817 0.881679 34.8602 0.957771L34.9817 0.880452V0.000488281H19.0873V0.772451L24.6009 6.44987C24.9984 7.00952 24.9984 7.00952 24.639 7.40347L14.7699 16.8781V0.000488281H0.328125V0.82277L3.65668 4.38926C3.97935 4.71449 3.99776 4.7329 3.99776 5.34409V39.2736H14.7699V22.828L24.5273 39.0343L24.6721 39.2736H38.3617V38.4563L35.0688 35.2543C34.594 34.767 26.7762 22.2205 21.5693 13.794Z" fill="#9587A8"/>
</g>
</svg>
