<svg width="130" height="44" viewBox="0 0 130 44" fill="none" xmlns="http://www.w3.org/2000/svg">
<path id="Popsa" fill-rule="evenodd" clip-rule="evenodd" d="M13.1809 0.5H0V33.697H7.89706V25.3689H13.1235C15.0762 25.3689 16.8566 25.0508 18.4073 24.3568C19.9867 23.6627 21.3364 22.7663 22.4277 21.6385C23.5476 20.5108 24.3804 19.1806 24.9834 17.6479C25.5865 16.1442 25.8736 14.5538 25.8736 12.8766C25.8736 11.1705 25.5578 9.58003 24.9834 8.07633C24.3804 6.57263 23.5189 5.24243 22.4277 4.14358C21.3364 3.04472 19.9867 2.11937 18.4073 1.48319C16.8279 0.818091 15.1049 0.5 13.1809 0.5ZM7.89706 7.67149H12.7789C14.2721 7.67149 15.4782 8.13416 16.4546 9.08843C17.431 10.0427 17.9192 11.2861 17.9192 12.8477C17.9192 14.4092 17.431 15.6527 16.4546 16.578C15.4782 17.5323 14.2434 17.966 12.7789 17.966H7.89706V7.67149ZM39.1981 34.1308C41.1222 34.1308 42.8739 33.8127 44.482 33.1476C46.0901 32.4825 47.4398 31.5861 48.5885 30.4294C49.7371 29.2727 50.6561 27.9425 51.2878 26.381C51.9196 24.8194 52.2642 23.1711 52.2642 21.4361C52.2642 19.7011 51.9483 18.0239 51.2878 16.4913C50.6273 14.9586 49.7084 13.5995 48.531 12.4139C47.3537 11.2572 45.9753 10.3319 44.3958 9.66678C42.7877 9.00168 41.0647 8.68359 39.2269 8.68359C37.3316 8.68359 35.5799 9.00168 33.9717 9.66678C32.3636 10.3319 30.9852 11.2572 29.8653 12.4139C28.7166 13.5706 27.8264 14.9297 27.1946 16.4913C26.5628 18.0239 26.2182 19.7011 26.2182 21.4361C26.2182 23.1711 26.5341 24.8484 27.1946 26.381C27.8264 27.9136 28.7166 29.2727 29.8653 30.4294C31.0139 31.5861 32.3923 32.4825 33.9717 33.1476C35.5511 33.8127 37.3029 34.1308 39.1981 34.1308ZM33.742 21.3494C33.742 20.5686 33.8856 19.8457 34.1727 19.1806C34.4599 18.5155 34.8619 17.9371 35.3501 17.4166C35.8383 16.925 36.4414 16.5202 37.1018 16.231C37.791 15.9418 38.4802 15.7972 39.2556 15.7972C40.0022 15.7972 40.7201 15.9418 41.4093 16.231C42.0985 16.5202 42.6729 16.925 43.161 17.4166C43.6492 17.9082 44.0512 18.5155 44.3384 19.1806C44.6256 19.8457 44.7692 20.5686 44.7692 21.3494C44.7692 22.1012 44.6256 22.8241 44.3384 23.5182C44.0512 24.2122 43.6492 24.7905 43.161 25.2821C42.6729 25.7737 42.0698 26.1785 41.4093 26.4677C40.7201 26.7569 40.0309 26.9015 39.2556 26.9015C38.5089 26.9015 37.791 26.7569 37.1018 26.4677C36.4126 26.1785 35.8383 25.7737 35.3501 25.2821C34.8619 24.7905 34.4599 24.1833 34.1727 23.5182C33.8856 22.8241 33.742 22.1012 33.742 21.3494ZM68.6326 34.1886C70.0398 34.1886 71.4469 33.8995 72.7678 33.3211C74.1175 32.7428 75.3236 31.9042 76.3574 30.8053C77.3912 29.7065 78.2527 28.3763 78.8558 26.7858C79.4875 25.2243 79.8034 23.4314 79.8034 21.4361C79.8034 19.4697 79.4875 17.6769 78.8558 16.1153C78.224 14.5538 77.3912 13.1947 76.3574 12.0958C75.3236 10.9681 74.1175 10.1584 72.7678 9.55111C71.4182 8.97276 69.9823 8.68359 68.5178 8.68359C66.8809 8.68359 65.5025 9.00168 64.3826 9.63786C63.2339 10.274 62.315 11.1416 61.6258 12.2115V9.11735H54.1021V43.5H61.6832V31.0077C63.1765 33.1187 65.4738 34.1886 68.6326 34.1886ZM61.2812 21.3494C61.2812 20.5686 61.4248 19.8457 61.7119 19.1806C61.9991 18.5155 62.4011 17.9371 62.8893 17.4166C63.3775 16.925 63.9806 16.5202 64.641 16.231C65.3302 15.9418 66.0194 15.7972 66.7948 15.7972C67.5701 15.7972 68.2593 15.9418 68.9485 16.231C69.6377 16.5202 70.2121 16.925 70.7002 17.4166C71.1884 17.9082 71.5905 18.5155 71.8776 19.1806C72.1648 19.8457 72.3084 20.5686 72.3084 21.3494C72.3084 22.1012 72.1648 22.8241 71.8776 23.5182C71.5905 24.2122 71.1884 24.7905 70.7002 25.2821C70.2121 25.7737 69.609 26.1785 68.9485 26.4677C68.288 26.7569 67.5701 26.9015 66.7948 26.9015C66.0194 26.9015 65.3302 26.7569 64.641 26.4677C63.9518 26.1785 63.3775 25.7737 62.8893 25.2821C62.4011 24.7905 61.9991 24.1833 61.7119 23.5182C61.4248 22.8241 61.2812 22.1012 61.2812 21.3494ZM92.2664 34.1886C94.133 34.1886 95.7411 33.9573 97.1482 33.4657C98.5266 33.003 99.6753 32.3379 100.594 31.5282C101.484 30.7186 102.174 29.8221 102.604 28.8389C103.035 27.8557 103.294 26.8147 103.294 25.7737C103.294 24.3857 103.006 23.2868 102.461 22.3904C101.886 21.4939 101.197 20.771 100.307 20.2216C99.4168 19.6722 98.4405 19.2384 97.378 18.9203C96.2867 18.6022 95.2529 18.342 94.2478 18.1395C92.5249 17.8215 91.2613 17.5034 90.3998 17.2431C89.5383 16.9539 89.1076 16.5491 89.1076 15.9707C89.1076 15.4502 89.3373 15.0454 89.7968 14.7562C90.2562 14.467 90.9454 14.3225 91.8644 14.3225C93.7597 14.3225 95.0806 15.1032 95.856 16.6358L103.093 14.4092C102.49 13.5128 101.858 12.6742 101.14 11.9512C100.422 11.2283 99.6466 10.5921 98.7276 10.1005C97.8087 9.60894 96.8324 9.23302 95.7411 8.94385C94.6499 8.65467 93.3576 8.539 91.9505 8.539C90.3998 8.539 88.964 8.74143 87.6718 9.14627C86.3795 9.55111 85.2596 10.1295 84.3406 10.8524C83.393 11.5753 82.7038 12.4428 82.1869 13.426C81.67 14.4092 81.4115 15.4502 81.4115 16.5202C81.4115 17.8504 81.67 18.9492 82.2156 19.8167C82.7325 20.6843 83.4504 21.3783 84.2832 21.9277C85.1447 22.4771 86.0923 22.9109 87.1549 23.1711C88.2174 23.4603 89.2512 23.7206 90.2562 23.923C91.7495 24.2411 93.013 24.5013 93.9894 24.7905C94.9658 25.0797 95.4827 25.5424 95.4827 26.2364C95.4827 26.7569 95.2242 27.2196 94.736 27.5955C94.2479 27.9714 93.5012 28.1738 92.5536 28.1738C91.4911 28.1738 90.5434 27.9425 89.7106 27.4509C88.8491 26.9882 88.2748 26.2075 87.9589 25.2243L80.3203 27.3931C81.2105 29.5619 82.6463 31.268 84.5991 32.4247C86.4369 33.6103 89.0214 34.1886 92.2664 34.1886ZM115.613 8.62576C114.12 8.62576 112.713 8.91493 111.363 9.49328C109.985 10.0716 108.807 10.9391 107.773 12.038C106.74 13.1369 105.878 14.467 105.275 16.0575C104.643 17.619 104.327 19.4119 104.327 21.3783C104.327 23.3736 104.643 25.1664 105.275 26.728C105.907 28.2895 106.768 29.6486 107.802 30.7475C108.836 31.8463 110.071 32.6849 111.392 33.2633C112.741 33.8416 114.12 34.1308 115.527 34.1308C117.049 34.1308 118.427 33.8416 119.576 33.2633C120.753 32.6849 121.73 31.8753 122.476 30.8053V33.6681H130V9.11735H122.476V11.9512C121.758 10.9391 120.839 10.1005 119.662 9.52219C118.542 8.94385 117.164 8.62576 115.613 8.62576ZM122.821 21.3494C122.821 22.1012 122.677 22.8241 122.39 23.5182C122.103 24.2122 121.701 24.7905 121.213 25.2821C120.725 25.7737 120.121 26.1785 119.461 26.4677C118.772 26.7569 118.083 26.9015 117.307 26.9015C116.532 26.9015 115.843 26.7569 115.154 26.4677C114.464 26.1785 113.89 25.7737 113.402 25.2821C112.914 24.7905 112.512 24.1833 112.224 23.5182C111.937 22.8241 111.794 22.1301 111.794 21.3494C111.794 20.5686 111.937 19.8457 112.224 19.1806C112.512 18.5155 112.914 17.9371 113.402 17.4166C113.89 16.8961 114.493 16.5202 115.154 16.231C115.814 15.9418 116.532 15.7972 117.307 15.7972C118.083 15.7972 118.772 15.9418 119.461 16.231C120.15 16.5202 120.725 16.925 121.213 17.4166C121.701 17.9082 122.103 18.5155 122.39 19.1806C122.677 19.8457 122.821 20.5686 122.821 21.3494Z" fill="#9587A8"/>
</svg>
